<svg xmlns="http://www.w3.org/2000/svg" xmlns:xlink="http://www.w3.org/1999/xlink" width="18" height="18" viewBox="0 0 18 18">
    <defs>
        <path id="a" d="M0 .086h17.913v17.787H0z"/>
    </defs>
    <g fill="none" fill-rule="evenodd">
        <g transform="translate(0 .04)">
            <mask id="b" fill="#fff">
                <use xlink:href="#a"/>
            </mask>
            <path fill="#FFF" d="M5.098 1.611c-1.964 0-3.563 1.587-3.563 3.538v7.662c0 1.95 1.599 3.538 3.563 3.538h7.717c1.964 0 3.563-1.587 3.563-3.538V5.149c0-1.951-1.599-3.538-3.563-3.538H5.098zm7.717 16.262H5.098c-2.81 0-5.098-2.27-5.098-5.062V5.149C0 2.357 2.287.086 5.098.086h7.717c2.81 0 5.098 2.271 5.098 5.063v7.662c0 2.791-2.287 5.062-5.098 5.062z" mask="url(#b)"/>
        </g>
        <path fill="#FFF" d="M8.956 5.99c-1.682 0-3.05 1.36-3.05 3.03 0 1.67 1.368 3.03 3.05 3.03 1.683 0 3.052-1.36 3.052-3.03 0-1.67-1.37-3.03-3.052-3.03m0 7.584c-2.529 0-4.586-2.043-4.586-4.554s2.057-4.554 4.586-4.554c2.53 0 4.587 2.043 4.587 4.554s-2.058 4.554-4.587 4.554M14.842 4.205c0 .605-.493 1.095-1.102 1.095-.609 0-1.103-.49-1.103-1.095 0-.604.494-1.094 1.103-1.094s1.102.49 1.102 1.094"/>
    </g>
</svg>
