<svg xmlns="http://www.w3.org/2000/svg" width="70" height="41" viewBox="0 0 70 41">
    <g fill="none" fill-rule="evenodd">
        <path fill="#000" d="M33.927 31.167l-1.918 5.895-1.935-5.895h-2.502l3.506 9.538h1.863l3.488-9.538zM37.469 40.705h2.374v-9.538H37.47v9.538zm1.188-10.728a1.506 1.506 0 0 1-1.498-1.501 1.49 1.49 0 0 1 1.498-1.483c.821 0 1.479.659 1.479 1.483a1.49 1.49 0 0 1-1.48 1.5zM45.705 33.2c-1.424 0-1.607 1.171-1.607 2.727 0 1.556.183 2.746 1.607 2.746 1.425 0 1.626-1.19 1.626-2.746s-.201-2.728-1.626-2.728zm1.68 7.505v-.897c-.657.733-1.35 1.007-2.356 1.007-.93 0-1.808-.33-2.337-.86-.95-.952-.968-2.6-.968-4.028 0-1.428.018-3.057.968-4.01.53-.53 1.388-.86 2.32-.86.968 0 1.698.256 2.319.952V27.67h2.374v13.035h-2.32zM57.265 34.023c-.256-.568-.785-.989-1.589-.989-.803 0-1.333.421-1.589.99-.146.347-.2.603-.219 1.024h3.616a2.63 2.63 0 0 0-.219-1.025zm-3.397 2.655c0 1.226.749 2.123 2.082 2.123 1.041 0 1.552-.292 2.155-.897l1.443 1.41c-.968.97-1.9 1.501-3.616 1.501-2.247 0-4.402-1.025-4.402-4.888 0-3.112 1.68-4.87 4.146-4.87 2.648 0 4.146 1.94 4.146 4.559v1.062h-5.954zM66.377 33.62c-.274-.274-.639-.42-1.114-.42-.475 0-.822.146-1.096.42-.493.494-.548 1.318-.548 2.307 0 .989.055 1.83.548 2.325.274.275.621.421 1.096.421.475 0 .84-.146 1.114-.421.493-.494.548-1.336.548-2.325 0-.989-.055-1.813-.548-2.307m1.844 6.024c-.584.622-1.552 1.171-2.958 1.171-1.406 0-2.355-.549-2.94-1.171-.858-.898-1.078-1.978-1.078-3.717 0-1.72.22-2.801 1.078-3.698.585-.623 1.534-1.172 2.94-1.172s2.374.55 2.958 1.172c.86.897 1.079 1.977 1.079 3.698 0 1.74-.22 2.82-1.079 3.717"/>
        <path fill="#DA272C" d="M56.43 13.535c-1.355-1.36-2.993-2.026-4.852-2.026-1.86 0-3.468.666-4.79 2.026-1.356 1.361-2.016 3.004-2.016 4.902 0 1.898.66 3.542 2.016 4.87 1.322 1.362 2.93 2.056 4.79 2.056 1.859 0 3.497-.694 4.852-2.056 1.324-1.328 1.986-2.972 1.986-4.87 0-1.898-.662-3.54-1.986-4.902M54.129 21c-.692.729-1.542 1.073-2.55 1.073-.977 0-1.828-.344-2.521-1.073-.694-.728-1.072-1.583-1.072-2.563 0-1.042.378-1.898 1.072-2.593.693-.726 1.544-1.076 2.52-1.044 1.009-.032 1.859.318 2.582 1.044.663.695 1.009 1.55 1.043 2.593A3.775 3.775 0 0 1 54.129 21M8.442 8.126c-2.361-.031-4.317.791-5.955 2.498C.817 12.3 0 14.292 0 16.665c0 2.34.817 4.399 2.487 6.074 1.638 1.644 3.594 2.468 5.955 2.468 1.891 0 3.625-.571 5.137-1.743 1.48-1.2 2.458-2.686 2.961-4.521h-3.434a5.927 5.927 0 0 1-1.86 2.182c-.881.54-1.795.824-2.804.824-1.45 0-2.676-.539-3.686-1.553-1.038-1.042-1.544-2.273-1.513-3.73-.03-1.454.475-2.69 1.513-3.732 1.01-1.012 2.237-1.55 3.686-1.55 1.01 0 1.923.284 2.805.854.789.539 1.417 1.297 1.859 2.182h3.434c-.503-1.835-1.48-3.354-2.961-4.522-1.512-1.203-3.246-1.803-5.137-1.772M29.24 11.478c-2.207-.032-3.751.57-4.634 1.74-.565.727-.849 1.678-.945 2.88h3.279c.06-.569.252-.95.472-1.202.346-.445.913-.668 1.734-.634.692-.034 1.227.093 1.604.316.377.19.536.57.568 1.108 0 .44-.253.792-.756 1.013l-2.523.408c-1.164.16-2.108.443-2.834.856-1.227.728-1.825 1.896-1.794 3.577-.031 1.165.346 2.117 1.1 2.813.662.57 1.576.884 2.681.917 1.795-.033 3.211-.475 4.22-1.362v1.362h3.28v-9.68c0-1.582-.572-2.688-1.641-3.257-1.135-.601-2.395-.887-3.812-.855zm1.386 7.432l.628-.344v1.327c0 1.136-.316 1.927-.913 2.37-.63.442-1.292.665-2.05.665-.47 0-.848-.127-1.163-.378-.314-.287-.474-.696-.474-1.297 0-.663.255-1.14.789-1.489.315-.189.849-.347 1.544-.442l1.639-.412zM18.21 25.27h3.277V8.126H18.21zM42.344 11.953c-.88.348-1.666.95-2.33 1.864v-1.675l-3.12-.03V25.27h3.246v-6.294c0-1.077.127-1.834.411-2.31.219-.505.629-.917 1.135-1.264.566-.381 1.164-.571 1.796-.571l1.006.064-.03-3.355-.85.064-1.264.35zM58.981 12.017l7.912-7.94-2.08-2.086-7.91 7.938zM50.507 8.854h2.93V.343h-2.93zM60.433 18.248h8.665v-2.941h-8.665z"/>
    </g>
</svg>
