<svg xmlns="http://www.w3.org/2000/svg" xmlns:xlink="http://www.w3.org/1999/xlink" width="82" height="40" viewBox="0 0 82 40">
    <defs>
        <path id="a" d="M0 .838h13.8v9.881H0z"/>
        <path id="c" d="M.686.268h8.122v14.629H.686z"/>
        <path id="e" d="M0 15.09h54.328V.46H0z"/>
    </defs>
    <g fill="none" fill-rule="evenodd">
        <g transform="translate(27.37 24.602)">
            <g transform="translate(0 4.256)">
                <mask id="b" fill="#fff">
                    <use xlink:href="#a"/>
                </mask>
                <path fill="#000" d="M11.364 10.72V4.811c0-1.328-.843-1.78-1.613-1.78-.751 0-1.632.452-1.632 1.725v5.962H5.682V4.812c0-1.328-.845-1.78-1.613-1.78s-1.632.452-1.632 1.78v5.907H0V.951h2.383v.9A3.418 3.418 0 0 1 4.819.839c1.088 0 1.97.394 2.588 1.239.825-.863 1.706-1.24 2.925-1.24.975 0 1.856.319 2.4.863.787.788 1.068 1.707 1.068 2.776v6.243h-2.436z" mask="url(#b)"/>
            </g>
            <g transform="translate(14.897 .193)">
                <mask id="d" fill="#fff">
                    <use xlink:href="#c"/>
                </mask>
                <path fill="#000" d="M5.337 3.456h-1.63l1.2-3.188h2.567L5.337 3.456zm1.089 11.326v-.897c-.638.675-1.539 1.012-2.44 1.012-.973 0-1.76-.32-2.306-.864-.786-.787-.994-1.708-.994-2.775V5.014h2.437v5.905c0 1.333.846 1.781 1.615 1.781.768 0 1.63-.448 1.63-1.78V5.013h2.44v9.768H6.426z" mask="url(#d)"/>
            </g>
            <path fill="#000" d="M28.9 15.09c-1.54 0-2.929-.17-4.164-1.407l1.594-1.594c.805.804 1.857.92 2.606.92.842 0 1.724-.282 1.724-1.015 0-.487-.263-.825-1.03-.9l-1.54-.15c-1.76-.167-2.85-.937-2.85-2.736 0-2.026 1.784-3.115 3.772-3.115 1.516 0 2.792.264 3.73 1.144l-1.499 1.52c-.563-.505-1.427-.657-2.27-.657-.976 0-1.389.452-1.389.937 0 .358.152.77 1.015.845l1.537.149c1.93.188 2.907 1.219 2.907 2.871 0 2.156-1.839 3.188-4.144 3.188"/>
            <mask id="f" fill="#fff">
                <use xlink:href="#e"/>
            </mask>
            <path fill="#000" d="M34.354 14.975h2.44V5.207h-2.44v9.768zm1.222-10.987c-.845 0-1.54-.694-1.54-1.539 0-.843.695-1.519 1.54-1.519.842 0 1.517.676 1.517 1.52s-.675 1.538-1.517 1.538zM42.643 15.09c-1.948 0-4.368-1.051-4.368-5.007 0-3.957 2.42-4.99 4.368-4.99 1.352 0 2.362.414 3.226 1.313l-1.65 1.651c-.504-.543-.936-.769-1.576-.769-.58 0-1.029.207-1.386.637-.376.47-.545 1.125-.545 2.158 0 1.03.17 1.705.545 2.174.357.433.805.636 1.386.636.64 0 1.072-.222 1.575-.766l1.651 1.63c-.864.902-1.874 1.333-3.226 1.333M51.89 10.85h-1.932c-.88 0-1.368.414-1.368 1.108 0 .675.45 1.124 1.407 1.124.676 0 1.105-.057 1.537-.468.263-.244.356-.637.356-1.238v-.525zm.056 4.126v-.844c-.657.658-1.273.937-2.401.937-1.105 0-1.913-.279-2.494-.861-.524-.545-.805-1.332-.805-2.194 0-1.558 1.068-2.832 3.338-2.832h2.306v-.487c0-1.07-.525-1.539-1.819-1.539-.938 0-1.369.225-1.875.807l-1.558-1.518c.957-1.05 1.895-1.351 3.526-1.351 2.738 0 4.164 1.163 4.164 3.45v6.432h-2.382z" mask="url(#f)"/>
        </g>
        <g fill="#DA272C">
            <path d="M56.495 13.517c-1.356-1.358-2.997-2.023-4.857-2.023-1.862 0-3.472.665-4.796 2.023-1.358 1.36-2.018 3-2.018 4.896 0 1.895.66 3.537 2.018 4.864 1.324 1.36 2.934 2.053 4.796 2.053 1.86 0 3.501-.693 4.857-2.053 1.325-1.327 1.988-2.969 1.988-4.864 0-1.896-.663-3.536-1.988-4.896m-2.303 7.455c-.694.728-1.544 1.073-2.554 1.073-.977 0-1.83-.345-2.524-1.073-.694-.727-1.073-1.58-1.073-2.559 0-1.041.379-1.896 1.073-2.59.694-.725 1.547-1.074 2.524-1.042 1.01-.032 1.86.317 2.584 1.042.665.694 1.01 1.549 1.045 2.59a3.766 3.766 0 0 1-1.075 2.56M8.452 8.116c-2.364-.032-4.322.79-5.962 2.494C.818 12.285 0 14.274 0 16.644c0 2.336.818 4.392 2.49 6.065 1.64 1.642 3.598 2.465 5.962 2.465 1.893 0 3.629-.57 5.142-1.74 1.483-1.2 2.461-2.683 2.965-4.516h-3.438a5.924 5.924 0 0 1-1.861 2.18c-.883.538-1.798.822-2.808.822-1.451 0-2.68-.538-3.69-1.55-1.04-1.042-1.546-2.27-1.515-3.726-.031-1.452.476-2.686 1.514-3.727 1.011-1.01 2.24-1.548 3.69-1.548 1.011 0 1.926.283 2.809.853.79.538 1.42 1.295 1.861 2.179h3.438c-.504-1.832-1.482-3.349-2.965-4.516-1.513-1.202-3.249-1.8-5.142-1.77M29.273 11.463c-2.208-.032-3.755.569-4.639 1.738-.565.725-.85 1.676-.946 2.876h3.283c.061-.568.253-.95.473-1.2.346-.445.914-.668 1.736-.634.693-.034 1.228.093 1.606.316.377.19.536.569.568 1.107 0 .44-.253.79-.756 1.011l-2.526.408c-1.166.16-2.111.442-2.838.855-1.228.727-1.827 1.893-1.796 3.572-.031 1.163.347 2.114 1.102 2.809.662.57 1.577.883 2.684.916 1.796-.033 3.214-.475 4.224-1.36v1.36h3.283V15.57c0-1.58-.571-2.685-1.642-3.253-1.136-.6-2.397-.886-3.816-.854zm1.388 7.422l.63-.343v1.325c0 1.135-.317 1.924-.914 2.367-.63.441-1.294.664-2.052.664-.472 0-.85-.127-1.166-.378-.314-.286-.474-.694-.474-1.295 0-.662.255-1.138.79-1.487.315-.188.85-.347 1.545-.441l1.641-.412zM18.231 25.237h3.281V8.116h-3.28zM42.394 11.938c-.881.347-1.669.948-2.334 1.861v-1.673l-3.123-.03v13.141h3.25v-6.286c0-1.075.126-1.831.411-2.307.219-.504.63-.915 1.136-1.262.567-.38 1.165-.57 1.798-.57l1.007.064-.03-3.35-.85.063-1.265.349zM59.05 12.001l7.92-7.929-2.083-2.083-7.918 7.927zM50.565 8.842h2.933v-8.5h-2.933zM60.503 18.224h8.675v-2.937h-8.675z"/>
        </g>
    </g>
</svg>
