<svg xmlns="http://www.w3.org/2000/svg" width="89" height="35" viewBox="0 0 89 35">
    <g fill="#DA272C" fill-rule="evenodd" stroke="#DA272C">
        <path stroke-width=".3" d="M8.849 11.464l-.035.022c-.575.367-.618.81-.578 1.233l.005.054c.217 1.2.636 2.398 1.36 3.883l.01.017c1.336 2.638 2.872 4.792 4.695 6.585.23.226.472.42.707.61a9.023 9.023 0 0 1 .634.543l.016.014c.176.141.346.226.535.268.467.102.82-.123.952-.208l2.77-1.767c.31-.198.782-.412 1.27-.305.525.115.844.543.987.789l2.875 4.46c.593.91.413 1.748-.505 2.36-.268.185-.532.348-.813.522l-.181.112a17.77 17.77 0 0 0-1.557 1.032l-.009.006c-.882.606-1.803.777-2.894.538-.1-.022-.214-.046-.318-.077-1.985-.568-3.672-1.75-4.92-2.718-3.394-2.658-6.153-5.978-8.199-9.867C3.976 16.338 3 13.462 2.582 10.52c-.262-1.808-.21-3.164.168-4.397A3.31 3.31 0 0 1 4.185 4.24l2.767-1.765c.442-.264.88-.358 1.266-.274.385.084.732.35 1.001.768l.015.021c.342.495.665 1.01.94 1.452l.241.382.011.017.24.382 1.419 2.2c.31.482.419.907.333 1.3-.086.394-.363.734-.845 1.042l-.234.15c-.15.097-.307.198-.463.295a35.73 35.73 0 0 1-2.027 1.253m17.399 15.451l-2.853-4.445c-.472-.765-1.126-1.258-1.891-1.426-.762-.166-1.572.005-2.34.495l-2.688 1.709-.119-.102c-.1-.085-.2-.167-.299-.248l-.01-.008c-.048-.04-.095-.08-.143-.118-.215-.173-.419-.337-.593-.505-1.714-1.693-3.163-3.726-4.428-6.217-.612-1.246-.981-2.252-1.198-3.264l-.031-.148.132-.076a38.866 38.866 0 0 0 1.69-1.055l.172-.112c.118-.075.235-.15.35-.227l.333-.214c1.595-1.018 1.963-2.702.939-4.292l-1.448-2.245c-.152-.239-.311-.485-.457-.73-.3-.483-.626-.998-.973-1.49l-.004-.007C9.913 1.46 9.262.987 8.506.821c-.76-.166-1.561-.01-2.32.453L3.419 3.058a4.748 4.748 0 0 0-2.03 2.65C.82 7.56.993 9.452 1.173 10.713c.443 3.115 1.466 6.13 3.219 9.492 2.143 4.076 5.033 7.552 8.588 10.332 1.363 1.05 3.21 2.336 5.403 2.964.133.036.273.073.403.101 1.472.322 2.823.067 4.018-.761a.174.174 0 0 1 .026-.02l.011-.009c.417-.326.867-.602 1.345-.896l.1-.06a27.63 27.63 0 0 0 1.044-.662c.76-.505 1.25-1.177 1.417-1.942.168-.769-.004-1.576-.5-2.337"/>
        <path stroke-width=".5" d="M71.688 1.34c-9.065 0-16.414 7.348-16.414 16.413 0 9.066 7.349 16.414 16.414 16.414 9.065 0 16.413-7.348 16.413-16.414-.012-9.06-7.353-16.4-16.413-16.413zM67.63 3a13.897 13.897 0 0 0-3.592 5.54 24.02 24.02 0 0 1-3.578-1.173 15.304 15.304 0 0 1 7.17-4.368zm-7.922 5.237c1.28.58 2.608 1.048 3.968 1.402A26.467 26.467 0 0 0 62.46 17.2v-.022H56.41a15.218 15.218 0 0 1 3.298-8.94zm0 18.973a15.213 15.213 0 0 1-3.298-8.94l6.05.015a26.472 26.472 0 0 0 1.216 7.583 24.733 24.733 0 0 0-3.968 1.342zm.752.915v-.044a23.95 23.95 0 0 1 3.578-1.172 13.904 13.904 0 0 0 3.592 5.598 15.31 15.31 0 0 1-7.17-4.382zm10.674 4.884c-2.478-.317-4.647-2.722-6.026-6.293a32.75 32.75 0 0 1 6.026-.641v6.934zm0-8.085c-2.148.027-4.29.26-6.396.693a25.786 25.786 0 0 1-1.165-7.31v-.022h7.561v6.639zm0-7.746h-7.56c.027-2.503.42-4.987 1.164-7.377 2.104.449 4.246.696 6.396.738v6.639zm0-7.746a32.8 32.8 0 0 1-6.026-.634c1.38-3.585 3.548-5.983 6.026-6.3v6.934zm12.534-1.15a15.222 15.222 0 0 1 3.297 8.94h-6.049A26.47 26.47 0 0 0 79.7 9.625a24.664 24.664 0 0 0 3.969-1.343zm-.76-.9a23.89 23.89 0 0 1-3.577 1.172A13.908 13.908 0 0 0 75.745 3a15.3 15.3 0 0 1 7.163 4.383zM72.241 2.498c2.479.317 4.648 2.722 6.027 6.293-1.985.399-4.002.614-6.027.641V2.498zm0 8.041c2.149-.027 4.29-.26 6.396-.694a25.75 25.75 0 0 1 1.165 7.378h-7.56v-6.684zm0 7.79h7.561a25.75 25.75 0 0 1-1.165 7.377 33.84 33.84 0 0 0-6.396-.738V18.33zm0 14.68v-6.934c2.024.025 4.042.237 6.027.634-1.38 3.585-3.548 5.983-6.027 6.3zm3.504-.502a13.896 13.896 0 0 0 3.592-5.547c1.222.297 2.418.689 3.579 1.173a15.297 15.297 0 0 1-7.171 4.374zm7.923-5.237a24.596 24.596 0 0 0-3.969-1.402 26.47 26.47 0 0 0 1.217-7.561v.022h6.05a15.22 15.22 0 0 1-3.298 8.94zM45.714 16.799h-3.68v-3.68a.923.923 0 1 0-1.846 0v3.68h-3.68a.924.924 0 1 0 0 1.847h3.68v3.679a.923.923 0 1 0 1.846 0v-3.68h3.68a.923.923 0 0 0 0-1.846z"/>
    </g>
</svg>
