<svg xmlns="http://www.w3.org/2000/svg" width="50" height="37" viewBox="0 0 50 37">
    <g fill="#DA272C" fill-rule="evenodd">
        <path d="M26.715 5.83c.343.03.557.108.637.233.099.157.21.221.257.147.024-.037.034-.11.028-.206-.017-.311-.234-.609-.277-.663l-.518-.104.072-.078c.002-.001-.07-.103-.162-.255l-.45.913c.087-.002.246-.002.413.013M27.639 4.55c-.212-.152-.486-.383-.46-.563.055-.406-1.214-.486-1.227-.487l-.103-.006.077-.045c.057-.034.142-.102.128-.142-.007-.019-.037-.033-.09-.043-.248-.048-.488-.26-.573-.342l-.34.237-.64-.102-.008-.005a21.69 21.69 0 0 1-.495-.314c-.055-.036-.154-.057-.293-.062a3.22 3.22 0 0 0-.533.036l-.571.332.02.311-.046.001c-.15.002-.586.032-.628.145-.043.115.032.441.015.647l1.692.552.624.204.928-.281.023.015c.069.047.225.076.451.085.573.02 1.422-.094 1.43-.096l.619-.076zM25.309 5.088a.131.131 0 0 0-.06-.101.608.608 0 0 0-.289-.077c-.287-.025-.64.033-.64.033l-.248.04 1.7 1.231.037.027a4.16 4.16 0 0 0 .492-.28c-.015-.146-.045-.282-.066-.301 0 .003-.018.02-.047.109-.044.138-.148.2-.307.188-.303-.025-.721-.318-.74-.33l-.051-.037.042-.06c.054-.074.192-.299.177-.442M27.844 28.162c.439 0 .683-.52.33-.815l-4.05-2.52 3.586-3.29-.902-.419-4.297 2.357-5.49-3.169-2.242-1.294 2.08-1.908.56-.513 6.033-5.536-2.16-1.001-5.67 3.343-1.556.917-3.928 2.317-8.77-2.457c-1.216 0-1.89 1.469-.87 2.266l7.206 4.816.51 4.518.885 7.86 2.162 1.001.45-3.995.169-1.503.274-2.444.387-3.436 1.891.677 6.592 2.362.696 4.663.902.418.386-3.429.143-1.273 4.59 1.477c.034.007.07.01.103.01"/>
        <path d="M9.894 10.241a17.394 17.394 0 0 1 3.113-4.044l.156-.151-1.139 2.337a4.264 4.264 0 0 0-.373.767l.897-.556 5.623-3.49 2.667-1.656.93.453c-.16-.243-.33-.52-.292-.584l-1.236-.259.05-.049c.005-.003.365-.355.207-.618-.044-.074-.177-.119-.386-.13a3.887 3.887 0 0 0-.729.05l-.377.056.358-.13a18.132 18.132 0 0 1 6.908-1.064c.122.017.202.04.247.072.22.151.617.745.656.803.052.05 2.483 2.086 3.092 2.12a.722.722 0 0 0 .233-.022l.126-.644.036.004s.252.03.427.04c.124.008-1.556-1.37-1.552-1.371a.793.793 0 0 0 .062-.197l.008-.035.037.005s.35.054.5.064a1.594 1.594 0 0 0-.317-.278l-.168-.115.2.048c1.435.346 2.822.866 4.124 1.546l.01.005.105.18.057.262.7.377-.199.222.767.636.286-.035.42.378.475.055-.041.052c-.082.104-.197.3-.16.377.004.009.021.038.101.037.36-.005 1.285.897 1.324.935l.068.066-.824-.02 1.008 1.684.416-.027.185.418.087-.15.293.017.025-.429-.543-1.228.399.022.01.012c.778.861 1.47 1.802 2.06 2.796l-.064.042-.997-1.196a.753.753 0 0 0-.211-.046c-.196-.01-.296.082-.308.286-.002.04-.442.05-.79.059.244-.048.48-.112.451-.184l-.495.185c-.208.005-.373.011-.378.023a.102.102 0 0 1-.04.053c.072-.012.221-.033.379-.062l-.957.356-.93.822-2.716.406 1.128 1.056c-.002.017-.183 1.459.165 2.405.333.905 2.545 1.93 2.523 2.047.047.1 1.6.928 1.919 1.08.337.162.23.648.195.776.158.083.907.5 1.114 1.02.043.108.094.165.15.168.136.008.326-.279.413-.46l.011-.024.472.026.562-.513.398.531.384.06-.001.063-.08 1.365a16.992 16.992 0 0 1-2.11 6.688c-1.762-1.72.376-2.232.376-2.232s.905-2.31-.424-2.014c-1.329.295-1.675-1.1-1.906-1.363l-.057 1.735s-1.285-.608-.952.616c.334 1.223 1.572.139 1.467 1.183-.105 1.045-1.44 1.756-1.44 1.756l.826 1.676s.015.672.01 1.336c.523.123 1.02.216 1.497.287 2.801-3.227 3.983-6.78 3.983-11.338C44.578 8.296 36.064 0 25.561 0 18.053 0 11.562 4.238 8.47 10.393l.8.236.624-.388zM34.744 33.434c-2.3 1.644-4.214 2.056-6.986 2.391L27.638 37c3.444-.367 5.876-1.103 8.47-3.157a27.014 27.014 0 0 1-.747-.217 49.208 49.208 0 0 1-.617-.192"/>
        <path d="M47.045 22.057a.524.524 0 0 0-.41-.214c-.448 0-.868.627-.484 1.098 1.107 1.36 1.947 2.966 1.504 4.753-.306 1.237-1.201 2.136-2.32 2.714-1.24.637-2.59.883-3.959.883-.888 0-1.783-.104-2.662-.27-.46-.087-.916-.191-1.363-.307-.29-.076-.577-.156-.858-.239-2.422-.715-4.801-1.609-7.192-2.42a.657.657 0 0 0-.21-.037c-.615 0-.818 1.009-.126 1.244 2.39.81 4.77 1.703 7.191 2.42l.063.017c.458.135.922.26 1.392.371 1.191.283 2.414.472 3.632.472.203 0 .405-.005.606-.016 2.87-.154 6.205-1.395 7.008-4.43.602-2.274-.396-4.3-1.812-6.039"/>
    </g>
</svg>
