<svg xmlns="http://www.w3.org/2000/svg" width="30" height="40" viewBox="0 0 30 40">
    <path fill="#DA272C" fill-rule="evenodd" d="M9.694 13.335l-.043.024c-.692.39-.769.903-.749 1.398l.003.062c.18 1.41.595 2.827 1.35 4.597l.01.021c1.397 3.148 3.056 5.746 5.071 7.941.254.277.525.518.787.752.24.213.466.415.658.619l.049.051.017.018c.197.174.39.284.607.343.538.148.963-.093 1.123-.182l3.335-1.885c.374-.212.938-.432 1.5-.277.605.165.95.682 1.103.977l3.079 5.36c.635 1.093.376 2.057-.732 2.712-.324.199-.642.372-.98.558l-.218.119c-.608.324-1.255.683-1.877 1.104l-.01.007c-1.067.65-2.15.793-3.408.449-.115-.032-.246-.068-.365-.11-2.28-.78-4.174-2.26-5.569-3.46-3.796-3.297-6.809-7.325-8.957-11.97-1.762-3.86-2.725-7.263-3.032-10.71-.196-2.117-.052-3.69.463-5.1a3.854 3.854 0 0 1 1.788-2.1L8.03 2.772c.531-.28 1.047-.362 1.492-.24.445.12.832.45 1.12.952l.016.026c.37.597.715 1.214 1.009 1.746l.257.458.011.021c.085.151.172.304.257.458l1.52 2.645c.331.579.433 1.079.309 1.531-.125.452-.468.831-1.049 1.16l-.281.16c-.182.104-.37.212-.558.315-.878.508-1.628.93-2.44 1.332m19.34 19.024l-3.054-5.341c-.503-.919-1.236-1.532-2.118-1.773-.878-.24-1.832-.092-2.756.432l-3.239 1.822-.132-.125c-.111-.106-.223-.207-.333-.307l-.01-.01a24.81 24.81 0 0 0-.161-.146c-.24-.215-.468-.417-.661-.624-1.895-2.072-3.46-4.524-4.783-7.497-.637-1.485-1.006-2.678-1.197-3.867l-.028-.175.159-.08a45.387 45.387 0 0 0 2.034-1.122l.208-.12c.142-.08.283-.16.422-.242l.401-.229c1.92-1.085 2.453-3.02 1.355-4.932l-1.55-2.698c-.163-.287-.334-.582-.49-.875-.32-.581-.668-1.2-1.042-1.793l-.004-.008c-.51-.878-1.241-1.468-2.112-1.706-.875-.24-1.819-.107-2.731.384L3.875 3.232a5.53 5.53 0 0 0-2.528 2.956C.573 8.306.66 10.516.792 11.994c.326 3.647 1.335 7.215 3.174 11.23 2.25 4.869 5.406 9.086 9.38 12.535 1.526 1.304 3.6 2.911 6.119 3.775.152.05.313.101.464.142 1.695.464 3.285.25 4.73-.64a.203.203 0 0 1 .03-.02l.014-.01c.506-.354 1.048-.648 1.622-.96l.12-.064c.345-.185.798-.431 1.258-.705.917-.542 1.529-1.293 1.77-2.171.243-.884.091-1.833-.44-2.747"/>
</svg>
