<svg xmlns="http://www.w3.org/2000/svg" width="45" height="40" viewBox="0 0 45 40">
    <g fill="#DA272C" fill-rule="evenodd">
        <path d="M17.5 37.906a1.658 1.658 0 0 1-1.656-1.656c0-.913.743-1.656 1.656-1.656.913 0 1.656.743 1.656 1.656 0 .913-.743 1.656-1.656 1.656m0-5.406a3.754 3.754 0 0 0-3.75 3.75A3.754 3.754 0 0 0 17.5 40a3.754 3.754 0 0 0 3.75-3.75 3.754 3.754 0 0 0-3.75-3.75M30 37.906a1.658 1.658 0 0 1-1.656-1.656c0-.913.743-1.656 1.656-1.656.913 0 1.656.743 1.656 1.656 0 .913-.743 1.656-1.656 1.656m0-5.406a3.754 3.754 0 0 0-3.75 3.75A3.754 3.754 0 0 0 30 40a3.754 3.754 0 0 0 3.75-3.75A3.754 3.754 0 0 0 30 32.5M43.369 9.377c-.338 3.886-3.745 6.77-7.596 6.43a6.946 6.946 0 0 1-4.76-2.5A7.07 7.07 0 0 1 29.4 8.143a7.047 7.047 0 0 1 2.478-4.802 6.921 6.921 0 0 1 5.118-1.628c3.851.34 6.71 3.779 6.373 7.664zm-6.774 14.75H10.988L8.139 10.174h19.758a8.66 8.66 0 0 0 1.9 4.163 8.52 8.52 0 0 0 6.594 3.1c.545 0 1.08-.052 1.601-.152l-1.397 6.842zm.54-24.01a8.491 8.491 0 0 0-6.277 1.996 8.645 8.645 0 0 0-3.04 5.89c-.004.039-.004.078-.007.116H7.719l-.64-3.138a2.054 2.054 0 0 0-1.184-1.47l-4.47-1.959a1.015 1.015 0 0 0-1.34.534c-.225.52.012 1.126.528 1.351l4.47 1.959 4.929 24.137a2.05 2.05 0 0 0 1.995 1.64h24.4c.562 0 1.018-.46 1.018-1.027 0-.568-.456-1.028-1.018-1.028h-24.4l-.6-2.936h25.188c.962 0 1.801-.69 1.995-1.64l1.638-8.023a8.68 8.68 0 0 0 4.723-7.002c.413-4.766-3.093-8.983-7.816-9.4z"/>
        <path d="M39.913 7.725h-2.638V5.087a.712.712 0 1 0-1.425 0v2.638h-2.638a.712.712 0 1 0 0 1.425h2.638v2.638a.712.712 0 1 0 1.425 0V9.15h2.638a.712.712 0 1 0 0-1.425"/>
    </g>
</svg>
