<svg xmlns="http://www.w3.org/2000/svg" width="44" height="37" viewBox="0 0 44 37">
    <g fill="none" fill-rule="evenodd">
        <path fill="#DA272C" stroke="#DA272C" stroke-width=".5" d="M18.408 1C8.794 1 1 8.794 1 18.408c0 9.615 7.794 17.409 17.408 17.409 9.616 0 17.409-7.794 17.409-17.409C35.804 8.8 28.017 1.013 18.408 1zm-4.303 1.76a14.739 14.739 0 0 0-3.81 5.876A25.477 25.477 0 0 1 6.5 7.392a16.231 16.231 0 0 1 7.605-4.632zM5.703 8.315a26.14 26.14 0 0 0 4.209 1.487 28.071 28.071 0 0 0-1.291 8.02v-.024H2.205a16.14 16.14 0 0 1 3.498-9.483zm0 20.123a16.135 16.135 0 0 1-3.498-9.482l6.416.016c.037 2.73.471 5.44 1.29 8.043-1.44.354-2.848.83-4.208 1.423zm.797.971v-.047c1.23-.513 2.5-.93 3.795-1.243a14.747 14.747 0 0 0 3.81 5.938A16.237 16.237 0 0 1 6.5 29.409zm11.322 5.18c-2.629-.337-4.93-2.887-6.392-6.674a34.736 34.736 0 0 1 6.392-.681v7.355zm0-8.576c-2.28.03-4.55.276-6.784.736a27.349 27.349 0 0 1-1.236-7.754v-.023h8.02v7.041zm0-8.215h-8.02c.03-2.654.446-5.29 1.236-7.824a35.95 35.95 0 0 0 6.784.783v7.041zm0-8.215a34.788 34.788 0 0 1-6.392-.673c1.463-3.802 3.763-6.345 6.392-6.682v7.355zm13.293-1.22a16.144 16.144 0 0 1 3.497 9.483h-6.416a28.074 28.074 0 0 0-1.29-8.06c1.44-.354 2.849-.83 4.209-1.424zm-.806-.955c-1.23.513-2.499.93-3.794 1.244a14.751 14.751 0 0 0-3.803-5.892c2.916.81 5.548 2.42 7.597 4.648zm-11.314-5.18c2.63.337 4.93 2.888 6.393 6.674a34.797 34.797 0 0 1-6.393.681V2.228zm0 8.529c2.28-.03 4.551-.276 6.784-.736a27.311 27.311 0 0 1 1.236 7.825h-8.02v-7.09zm0 8.262h8.02a27.31 27.31 0 0 1-1.236 7.824 35.89 35.89 0 0 0-6.784-.782v-7.042zm0 15.57v-7.355c2.147.027 4.287.252 6.393.673-1.463 3.802-3.764 6.345-6.393 6.682zm3.717-.532a14.738 14.738 0 0 0 3.81-5.884c1.295.315 2.564.73 3.795 1.244a16.224 16.224 0 0 1-7.605 4.64zm8.403-5.555a26.086 26.086 0 0 0-4.21-1.487 28.075 28.075 0 0 0 1.291-8.02v.024h6.416a16.142 16.142 0 0 1-3.497 9.483z"/>
        <circle cx="9.879" cy="9.788" r="8.795" fill="#FFF" stroke="#DA272C" stroke-width="1.5" transform="translate(24 5)"/>
        <g fill="#DA272C" fill-rule="nonzero">
            <path stroke="#DA272C" stroke-width=".5" d="M33.882 9C31.742 9 30 10.735 30 12.867c0 .72.2 1.424.58 2.034l3.081 4.947a.324.324 0 0 0 .275.152h.003c.113 0 .217-.06.275-.157l3.003-4.995a3.851 3.851 0 0 0 .548-1.98c0-2.133-1.742-3.868-3.883-3.868zm2.78 5.518l-2.73 4.54-2.803-4.497a3.21 3.21 0 0 1-.486-1.694 3.24 3.24 0 0 1 3.24-3.227 3.238 3.238 0 0 1 3.237 3.227 3.21 3.21 0 0 1-.458 1.65z"/>
            <path d="M33.882 14.18a1.3 1.3 0 0 1-1.298-1.298c0-.713.585-1.298 1.298-1.298.714 0 1.297.585 1.297 1.298 0 .705-.568 1.299-1.297 1.299z"/>
        </g>
    </g>
</svg>
