<svg xmlns="http://www.w3.org/2000/svg" xmlns:xlink="http://www.w3.org/1999/xlink" width="19" height="16" viewBox="0 0 19 16">
    <defs>
        <path id="a" d="M0 0h19v16H0z"/>
    </defs>
    <g fill="none" fill-rule="evenodd">
        <mask id="b" fill="#fff">
            <use xlink:href="#a"/>
        </mask>
        <path fill="#FFF" d="M5.975 16c7.17 0 11.091-6.155 11.091-11.492 0-.175-.003-.35-.01-.522A8.098 8.098 0 0 0 19 1.894a7.57 7.57 0 0 1-2.239.636A4.03 4.03 0 0 0 18.475.296c-.753.462-1.587.799-2.475.98A3.832 3.832 0 0 0 13.155 0c-2.153 0-3.899 1.809-3.899 4.039 0 .317.034.625.101.92-3.24-.168-6.112-1.775-8.035-4.22a4.137 4.137 0 0 0-.527 2.03c0 1.402.688 2.64 1.734 3.363a3.766 3.766 0 0 1-1.765-.505l-.001.051c0 1.957 1.344 3.59 3.127 3.96a3.782 3.782 0 0 1-1.76.07c.496 1.604 1.935 2.772 3.641 2.805A7.65 7.65 0 0 1 0 14.186 10.758 10.758 0 0 0 5.975 16" mask="url(#b)"/>
    </g>
</svg>
