<svg xmlns="http://www.w3.org/2000/svg" width="77" height="43" viewBox="0 0 77 43">
    <g fill="none" fill-rule="evenodd">
        <g fill="#FFF">
            <g>
                <path d="M54.978 22.448c-2.314-2.314-5.11-3.45-8.286-3.45-3.175 0-5.922 1.136-8.18 3.45-2.32 2.322-3.443 5.117-3.443 8.35 0 3.234 1.124 6.038 3.444 8.3 2.257 2.319 5.004 3.5 8.179 3.5 3.176 0 5.972-1.181 8.286-3.5 2.26-2.262 3.393-5.066 3.393-8.3 0-3.232-1.133-6.028-3.393-8.35M51.05 35.164c-1.182 1.243-2.634 1.83-4.358 1.83-1.666 0-3.122-.587-4.305-1.83-1.186-1.236-1.831-2.696-1.831-4.366 0-1.775.645-3.232 1.83-4.416 1.184-1.237 2.64-1.834 4.306-1.779 1.724-.055 3.176.542 4.41 1.778 1.137 1.184 1.723 2.642 1.779 4.418-.056 1.67-.642 3.129-1.831 4.365" transform="translate(-43.000000, -96.000000) translate(43.000000, 96.000000)"/>
                <path d="M32.258 36c-.979.672-2.105.994-3.38.994-1.667 0-3.123-.586-4.306-1.83-1.187-1.237-1.83-2.696-1.83-4.366 0-1.775.643-3.233 1.83-4.417 1.183-1.235 2.64-1.832 4.305-1.777 1.724-.055 3.176.542 4.41 1.777 1.137 1.184 1.722 2.64 1.78 4.416h.002s2.79-.593 5.45-.95c-.203-2.832-1.32-5.308-3.356-7.398-2.314-2.316-5.11-3.451-8.286-3.451-3.175 0-5.922 1.135-8.18 3.45-2.319 2.322-3.443 5.117-3.443 8.35 0 3.233 1.124 6.038 3.443 8.3 2.258 2.319 5.005 3.5 8.18 3.5 2.274 0 4.352-.61 6.2-1.804C33.8 39.343 32.863 37.74 32.257 36M69.503 2.314l3.786 3.78-13.581 13.57-3.781-3.788L69.503 2.314zm-7.474 28.067h14.86v-5.317h-14.86v5.317zM45.126 14.464h5.299V0h-5.3v14.464zM0 42.545V38.12l8.813-7.527c1.664-1.437 2.685-2.648 2.685-4.085 0-1.815-1.286-3.101-3.253-3.101-1.664 0-3.29.983-3.29 3.328H.038c0-4.841 3.669-7.753 8.207-7.753 4.652 0 8.17 2.95 8.17 7.45 0 2.913-2.08 4.918-4.804 7.338l-4.879 4.35h10.175v4.425H0z" transform="translate(-43.000000, -96.000000) translate(43.000000, 96.000000)"/>
            </g>
        </g>
    </g>
</svg>
