<svg xmlns="http://www.w3.org/2000/svg" xmlns:xlink="http://www.w3.org/1999/xlink" width="26" height="21" viewBox="0 0 26 21">
    <defs>
        <path id="qnk3k73z7a" d="M0 0.278L1.937 0.278 1.937 7.058 0 7.058z"/>
        <path id="ur1z6noz8c" d="M0.407 0.278L2.344 0.278 2.344 7.058 0.407 7.058z"/>
    </defs>
    <g fill="none" fill-rule="evenodd">
        <g>
            <g>
                <path fill="#FFF" d="M10.332 0c-.535 0-.97.434-.97.969v18.725c0 .535.435.969.97.969.535 0 .968-.434.968-.97V.97c0-.535-.433-.97-.968-.97" transform="translate(-42.000000, -43.000000) translate(42.000000, 43.000000)"/>
                <g transform="translate(-42.000000, -43.000000) translate(42.000000, 43.000000) translate(0.000000, 6.662900)">
                    <mask id="qhv708fzub" fill="#fff">
                        <use xlink:href="#qnk3k73z7a"/>
                    </mask>
                    <path fill="#FFF" d="M.969.278c-.535 0-.97.434-.97.97V6.09c0 .535.435.968.97.968.535 0 .968-.433.968-.968V1.247c0-.535-.433-.969-.968-.969" mask="url(#qhv708fzub)"/>
                </g>
                <path fill="#FFF" d="M5.65 3.713c-.535 0-.968.434-.968.969v11.3c0 .535.433.968.968.968.535 0 .969-.433.969-.968v-11.3c0-.535-.434-.97-.97-.97M15.013 3.713c-.535 0-.968.434-.968.969v11.3c0 .535.433.968.968.968.535 0 .969-.433.969-.968v-11.3c0-.535-.434-.97-.97-.97" transform="translate(-42.000000, -43.000000) translate(42.000000, 43.000000)"/>
                <g transform="translate(-42.000000, -43.000000) translate(42.000000, 43.000000) translate(23.000000, 6.662900)">
                    <mask id="djvkqyp3ed" fill="#fff">
                        <use xlink:href="#ur1z6noz8c"/>
                    </mask>
                    <path fill="#FFF" d="M1.375.278c-.534 0-.968.434-.968.97V6.09c0 .535.434.968.968.968.536 0 .97-.433.97-.968V1.247c0-.535-.435-.969-.97-.969" mask="url(#djvkqyp3ed)"/>
                </g>
                <path fill="#FFF" d="M19.694 8.556c-.535 0-.969.434-.969.969v1.614c0 .535.434.969.97.969.534 0 .968-.434.968-.97V9.524c0-.534-.434-.968-.969-.968" transform="translate(-42.000000, -43.000000) translate(42.000000, 43.000000)"/>
            </g>
        </g>
    </g>
</svg>
